<?xml version="1.0" standalone="no"?>
<!DOCTYPE svg PUBLIC "-//W3C//DTD SVG 20010904//EN"
 "http://www.w3.org/TR/2001/REC-SVG-20010904/DTD/svg10.dtd">
<svg version="1.0" xmlns="http://www.w3.org/2000/svg"
 width="512.000000pt" height="512.000000pt" viewBox="0 0 512.000000 512.000000"
 preserveAspectRatio="xMidYMid meet">
<metadata>
Created by potrace 1.11, written by Peter Selinger 2001-2013
</metadata>
<g transform="translate(0.000000,512.000000) scale(0.100000,-0.100000)"
fill="#000000" stroke="none">
<path d="M2902 4579 c-1 -288 -1 -535 -1 -549 l-1 -25 -352 1 c-194 1 -356 2
-359 3 -3 0 -6 241 -7 534 0 292 -1 536 -1 540 -1 7 -2171 -2157 -2171 -2165
0 -2 243 -3 540 -2 l540 0 0 -362 0 -362 -507 0 c-615 -1 -591 0 -575 -11 7
-4 499 -493 1092 -1085 693 -691 1080 -1071 1081 -1059 0 10 1 254 2 543 l2
525 358 3 c335 2 357 1 358 -15 0 -10 1 -256 1 -547 l0 -528 57 55 c31 31 115
113 186 183 72 69 302 296 513 503 640 629 774 760 1120 1099 182 179 332 329
332 332 0 4 -242 8 -537 8 -296 0 -548 1 -560 1 l-23 1 0 360 c0 281 3 360 13
361 6 0 249 1 540 1 290 1 527 4 527 7 0 3 -488 494 -1084 1090 l-1083 1083
-1 -523z m717 -930 c199 -198 361 -362 361 -363 0 -1 -77 -2 -171 -2 -94 1
-173 -2 -175 -6 -6 -9 -6 -84 -5 -864 l1 -571 168 -1 c92 0 172 0 179 -1 9 -1
-646 -665 -699 -709 -14 -11 -15 6 -13 163 2 96 0 177 -5 180 -6 4 -500 6
-1205 5 l-240 0 1 -180 c0 -99 0 -179 -2 -178 -24 23 -704 701 -712 710 -8 11
25 13 169 12 l179 -1 -2 725 -3 725 -179 -1 -180 -1 359 354 c198 194 361 352
363 350 2 -2 3 -80 3 -174 l-1 -171 724 0 723 0 -1 180 c0 99 0 180 1 180 1 0
164 -162 362 -361z"/>
</g>
</svg>
